<svg xmlns="http://www.w3.org/2000/svg" xmlns:xlink="http://www.w3.org/1999/xlink" width="116" zoomAndPan="magnify" viewBox="0 0 87 68.999997" height="92" preserveAspectRatio="xMidYMid meet" version="1.0"><defs><clipPath id="id1"><path d="M 34 6.898438 L 51 6.898438 L 51 23 L 34 23 Z M 34 6.898438 " clip-rule="nonzero"/></clipPath><clipPath id="id2"><path d="M 5.355469 31.757812 L 40.871094 31.757812 L 40.871094 69 L 5.355469 69 Z M 5.355469 31.757812 " clip-rule="nonzero"/></clipPath><clipPath id="id3"><path d="M 38.144531 31.757812 L 80.34375 31.757812 L 80.34375 69 L 38.144531 69 Z M 38.144531 31.757812 " clip-rule="nonzero"/></clipPath></defs><path fill="#ffffff" d="M 64.203125 24.382812 C 64.039062 24.761719 64.214844 25.199219 64.59375 25.363281 C 67.75 26.714844 69.710938 29.175781 69.710938 31.785156 C 69.710938 32.195312 70.046875 32.527344 70.457031 32.527344 C 70.867188 32.527344 71.199219 32.195312 71.199219 31.785156 C 71.199219 30.148438 70.613281 28.550781 69.5 27.164062 C 68.449219 25.851562 66.953125 24.753906 65.175781 23.992188 C 64.800781 23.832031 64.363281 24.007812 64.203125 24.382812 " fill-opacity="1" fill-rule="nonzero"/><path fill="#ffffff" d="M 64.277344 31.65625 L 64.277344 34.503906 C 64.277344 34.914062 64.613281 35.246094 65.023438 35.246094 C 65.433594 35.246094 65.765625 34.914062 65.765625 34.503906 L 65.765625 31.65625 C 65.765625 31.246094 65.433594 30.910156 65.023438 30.910156 C 64.613281 30.910156 64.277344 31.246094 64.277344 31.65625 " fill-opacity="1" fill-rule="nonzero"/><path fill="#ffffff" d="M 54.300781 25.363281 C 54.679688 25.199219 54.855469 24.761719 54.691406 24.382812 C 54.53125 24.003906 54.09375 23.832031 53.714844 23.992188 C 51.941406 24.753906 50.445312 25.851562 49.394531 27.164062 C 48.28125 28.550781 47.695312 30.148438 47.695312 31.78125 L 47.6875 36.027344 C 47.6875 37.941406 49.242188 39.496094 51.148438 39.496094 C 53.054688 39.496094 54.609375 37.941406 54.609375 36.03125 L 54.617188 31.792969 C 54.617188 31.789062 54.617188 31.785156 54.617188 31.785156 C 54.617188 31.777344 54.617188 31.773438 54.617188 31.769531 L 54.617188 31.65625 C 54.617188 31.632812 54.613281 31.609375 54.613281 31.589844 C 54.570312 30.195312 54.101562 28.820312 53.242188 27.597656 C 53.003906 27.261719 52.542969 27.179688 52.207031 27.417969 C 51.871094 27.652344 51.789062 28.117188 52.027344 28.457031 C 52.753906 29.492188 53.125 30.605469 53.128906 31.769531 L 53.121094 36.027344 C 53.121094 37.117188 52.238281 38.003906 51.148438 38.003906 C 50.058594 38.003906 49.175781 37.117188 49.175781 36.027344 L 49.179688 31.785156 C 49.179688 29.175781 51.144531 26.714844 54.300781 25.363281 " fill-opacity="1" fill-rule="nonzero"/><path fill="#ffffff" d="M 48.007812 25.363281 C 48.269531 25.472656 48.527344 25.597656 48.777344 25.726562 C 48.886719 25.78125 49.003906 25.808594 49.117188 25.808594 C 49.386719 25.808594 49.648438 25.660156 49.777344 25.40625 C 49.96875 25.039062 49.824219 24.589844 49.460938 24.402344 C 49.179688 24.257812 48.886719 24.117188 48.59375 23.992188 C 48.214844 23.832031 47.777344 24.007812 47.617188 24.382812 C 47.453125 24.761719 47.628906 25.199219 48.007812 25.363281 " fill-opacity="1" fill-rule="nonzero"/><path fill="#ffffff" d="M 15.253906 32.5625 C 15.667969 32.5625 16 32.226562 16 31.816406 C 16 29.210938 17.960938 26.75 21.121094 25.394531 C 21.496094 25.234375 21.671875 24.796875 21.511719 24.417969 C 21.347656 24.039062 20.910156 23.863281 20.535156 24.027344 C 18.757812 24.785156 17.261719 25.882812 16.210938 27.195312 C 15.097656 28.585938 14.511719 30.183594 14.511719 31.816406 C 14.511719 32.226562 14.84375 32.5625 15.253906 32.5625 " fill-opacity="1" fill-rule="nonzero"/><path fill="#ffffff" d="M 20.6875 30.945312 C 20.277344 30.945312 19.945312 31.277344 19.945312 31.6875 L 19.945312 34.535156 C 19.945312 34.945312 20.277344 35.28125 20.6875 35.28125 C 21.101562 35.28125 21.433594 34.945312 21.433594 34.535156 L 21.433594 31.6875 C 21.433594 31.277344 21.101562 30.945312 20.6875 30.945312 " fill-opacity="1" fill-rule="nonzero"/><path fill="#ffffff" d="M 59.457031 11.519531 C 62.195312 11.519531 64.421875 13.75 64.421875 16.492188 C 64.421875 19.234375 62.195312 21.464844 59.457031 21.464844 C 56.71875 21.464844 54.488281 19.234375 54.488281 16.492188 C 54.488281 13.75 56.71875 11.519531 59.457031 11.519531 Z M 59.457031 22.957031 C 61.179688 22.957031 62.800781 22.285156 64.019531 21.0625 C 65.238281 19.84375 65.910156 18.21875 65.910156 16.492188 C 65.910156 14.765625 65.238281 13.144531 64.019531 11.925781 C 62.800781 10.703125 61.179688 10.03125 59.457031 10.03125 C 57.730469 10.03125 56.109375 10.703125 54.890625 11.925781 C 53.671875 13.144531 53.003906 14.765625 53.003906 16.492188 C 53.003906 18.21875 53.671875 19.84375 54.890625 21.0625 C 56.113281 22.285156 57.730469 22.957031 59.457031 22.957031 " fill-opacity="1" fill-rule="nonzero"/><path fill="#ffffff" d="M 26.273438 11.519531 C 29.019531 11.519531 31.253906 13.757812 31.253906 16.511719 C 31.253906 19.261719 29.019531 21.5 26.273438 21.5 C 23.527344 21.5 21.292969 19.261719 21.292969 16.511719 C 21.292969 13.757812 23.527344 11.519531 26.273438 11.519531 Z M 26.273438 22.988281 C 28 22.988281 29.625 22.316406 30.847656 21.089844 C 32.070312 19.867188 32.742188 18.242188 32.742188 16.511719 C 32.742188 14.777344 32.070312 13.152344 30.847656 11.929688 C 29.625 10.703125 28 10.03125 26.273438 10.03125 C 24.546875 10.03125 22.921875 10.703125 21.699219 11.929688 C 20.476562 13.152344 19.804688 14.777344 19.804688 16.511719 C 19.804688 18.242188 20.476562 19.867188 21.699219 21.089844 C 22.921875 22.316406 24.546875 22.988281 26.273438 22.988281 " fill-opacity="1" fill-rule="nonzero"/><g clip-path="url(#id1)"><path fill="#ffffff" d="M 42.855469 8.390625 C 46.457031 8.390625 49.382812 11.324219 49.382812 14.929688 C 49.382812 18.53125 46.457031 21.464844 42.855469 21.464844 C 39.257812 21.464844 36.328125 18.53125 36.328125 14.929688 C 36.328125 11.324219 39.257812 8.390625 42.855469 8.390625 Z M 42.855469 22.957031 C 44.996094 22.957031 47.011719 22.121094 48.523438 20.605469 C 50.039062 19.089844 50.871094 17.070312 50.871094 14.929688 C 50.871094 12.785156 50.039062 10.769531 48.523438 9.25 C 47.011719 7.734375 44.996094 6.898438 42.855469 6.898438 C 40.714844 6.898438 38.703125 7.734375 37.1875 9.25 C 35.671875 10.769531 34.839844 12.785156 34.839844 14.929688 C 34.839844 17.070312 35.671875 19.089844 37.1875 20.605469 C 38.703125 22.121094 40.714844 22.957031 42.855469 22.957031 " fill-opacity="1" fill-rule="nonzero"/></g><path fill="#ffffff" d="M 31.097656 31.78125 L 31.089844 36.027344 C 31.089844 37.941406 32.644531 39.496094 34.550781 39.496094 C 36.457031 39.496094 38.011719 37.941406 38.011719 36.03125 L 38.019531 31.792969 C 38.019531 31.789062 38.019531 31.785156 38.019531 31.785156 C 38.019531 31.777344 38.019531 31.773438 38.019531 31.769531 L 38.019531 31.65625 C 38.019531 31.632812 38.015625 31.609375 38.015625 31.585938 C 37.976562 30.195312 37.503906 28.820312 36.644531 27.597656 C 36.410156 27.261719 35.945312 27.179688 35.609375 27.417969 C 35.273438 27.652344 35.191406 28.117188 35.429688 28.457031 C 36.15625 29.492188 36.527344 30.605469 36.53125 31.769531 L 36.523438 36.027344 C 36.523438 37.117188 35.640625 38.003906 34.550781 38.003906 C 33.464844 38.003906 32.578125 37.117188 32.578125 36.027344 L 32.585938 31.785156 C 32.585938 29.175781 34.546875 26.714844 37.703125 25.363281 C 38.082031 25.199219 38.257812 24.761719 38.097656 24.382812 C 37.933594 24.007812 37.496094 23.832031 37.117188 23.992188 C 35.34375 24.753906 33.847656 25.851562 32.796875 27.164062 C 31.683594 28.550781 31.097656 30.148438 31.097656 31.78125 " fill-opacity="1" fill-rule="nonzero"/><path fill="#ffffff" d="M 31.019531 24.382812 C 30.859375 24.761719 31.03125 25.199219 31.410156 25.363281 C 31.671875 25.472656 31.929688 25.597656 32.179688 25.726562 C 32.289062 25.78125 32.40625 25.808594 32.519531 25.808594 C 32.789062 25.808594 33.050781 25.660156 33.179688 25.40625 C 33.371094 25.039062 33.226562 24.589844 32.863281 24.402344 C 32.582031 24.257812 32.289062 24.117188 31.996094 23.992188 C 31.617188 23.832031 31.179688 24.007812 31.019531 24.382812 " fill-opacity="1" fill-rule="nonzero"/><g clip-path="url(#id2)"><path fill="#ffffff" d="M 39.421875 55.066406 L 39.425781 55.078125 C 39.492188 55.230469 39.605469 55.355469 39.753906 55.4375 C 39.769531 55.445312 39.785156 55.453125 39.800781 55.457031 C 40.152344 55.617188 40.574219 55.476562 40.757812 55.132812 C 40.871094 54.925781 40.878906 54.679688 40.777344 54.46875 L 38.761719 50.335938 C 38.695312 50.199219 38.589844 50.089844 38.453125 50.015625 C 38.4375 50.007812 38.421875 50 38.40625 49.992188 C 38.207031 49.902344 37.976562 49.90625 37.777344 50.003906 L 36.933594 50.421875 L 34.632812 45.679688 C 34.15625 44.710938 33.40625 43.933594 32.46875 43.425781 C 32.226562 43.296875 31.980469 43.1875 31.691406 43.089844 C 31.378906 42.984375 18.484375 40.234375 17.933594 40.117188 C 16.222656 39.746094 14.503906 40.820312 14.105469 42.511719 C 13.90625 43.347656 14.050781 44.210938 14.511719 44.941406 C 14.808594 45.414062 15.226562 45.804688 15.714844 46.070312 C 15.957031 46.203125 16.21875 46.300781 16.492188 46.371094 L 23.367188 48.171875 C 23.539062 48.21875 23.71875 48.199219 23.882812 48.117188 C 24.070312 48.023438 24.210938 47.855469 24.265625 47.648438 C 24.355469 47.316406 24.207031 46.96875 23.90625 46.808594 C 23.859375 46.78125 23.804688 46.761719 23.753906 46.746094 L 16.882812 44.945312 L 16.855469 44.9375 C 16.703125 44.902344 16.554688 44.84375 16.417969 44.769531 C 16.148438 44.628906 15.921875 44.414062 15.757812 44.15625 C 15.511719 43.761719 15.433594 43.300781 15.539062 42.851562 C 15.757812 41.9375 16.6875 41.359375 17.617188 41.558594 C 17.75 41.589844 30.851562 44.410156 30.917969 44.425781 C 31.253906 44.5 31.515625 44.59375 31.765625 44.726562 C 32.4375 45.089844 32.96875 45.644531 33.308594 46.332031 L 35.609375 51.078125 L 28.230469 54.730469 L 27.820312 53.898438 C 27.519531 53.296875 27.050781 52.808594 26.464844 52.492188 C 26.316406 52.414062 26.164062 52.347656 26.011719 52.292969 C 25.984375 52.28125 25.960938 52.277344 25.925781 52.265625 C 25.808594 52.238281 14.519531 49.410156 14.1875 49.328125 L 14.179688 49.324219 C 14.132812 49.304688 14.082031 49.28125 14.03125 49.25 C 13.855469 49.15625 13.703125 49.039062 13.574219 48.898438 C 13.457031 48.769531 13.363281 48.632812 13.292969 48.484375 L 7.007812 35.796875 C 6.804688 35.378906 6.773438 34.902344 6.921875 34.457031 C 7.074219 34.011719 7.390625 33.652344 7.808594 33.445312 C 8.285156 33.207031 8.832031 33.199219 9.316406 33.417969 C 9.351562 33.433594 9.390625 33.453125 9.425781 33.472656 C 9.746094 33.644531 10 33.910156 10.164062 34.234375 L 12.699219 39.292969 C 12.707031 39.308594 12.714844 39.324219 12.726562 39.34375 L 12.742188 39.375 C 12.808594 39.507812 12.914062 39.621094 13.050781 39.691406 L 13.058594 39.695312 C 13.265625 39.804688 13.515625 39.808594 13.726562 39.707031 C 13.90625 39.617188 14.035156 39.464844 14.101562 39.28125 C 14.164062 39.09375 14.148438 38.894531 14.0625 38.71875 L 11.484375 33.578125 C 11.183594 32.976562 10.714844 32.492188 10.128906 32.175781 C 10.0625 32.140625 9.992188 32.105469 9.925781 32.074219 C 9.035156 31.671875 8.027344 31.6875 7.15625 32.121094 C 6.382812 32.503906 5.804688 33.164062 5.527344 33.984375 C 5.25 34.800781 5.308594 35.675781 5.683594 36.445312 L 11.96875 49.140625 C 12.105469 49.417969 12.28125 49.671875 12.488281 49.894531 C 12.730469 50.160156 13.015625 50.382812 13.335938 50.554688 C 13.445312 50.613281 13.566406 50.667969 13.683594 50.71875 L 13.710938 50.726562 C 13.714844 50.726562 13.714844 50.726562 13.714844 50.726562 L 13.75 50.738281 C 13.757812 50.742188 13.761719 50.742188 13.765625 50.742188 L 13.785156 50.75 L 25.527344 53.691406 L 25.554688 53.699219 C 25.625 53.726562 25.695312 53.757812 25.761719 53.792969 C 26.082031 53.964844 26.335938 54.230469 26.5 54.554688 L 26.90625 55.382812 L 26.042969 55.8125 C 25.679688 55.992188 25.53125 56.433594 25.707031 56.796875 L 31.652344 68.738281 C 31.707031 68.859375 31.800781 68.960938 31.914062 69.03125 C 31.929688 69.042969 31.949219 69.054688 31.964844 69.0625 C 31.980469 69.070312 31.996094 69.078125 32.011719 69.085938 C 32.363281 69.246094 32.785156 69.101562 32.96875 68.761719 C 33.066406 68.578125 33.085938 68.355469 33.011719 68.160156 C 32.996094 68.113281 32.976562 68.066406 32.949219 68.027344 L 32.945312 68.019531 L 27.359375 56.808594 L 37.769531 51.65625 L 39.421875 55.066406 " fill-opacity="1" fill-rule="nonzero"/></g><g clip-path="url(#id3)"><path fill="#ffffff" d="M 80.171875 33.984375 C 79.894531 33.164062 79.316406 32.503906 78.542969 32.121094 C 77.671875 31.6875 76.664062 31.671875 75.773438 32.074219 C 75.707031 32.105469 75.636719 32.140625 75.570312 32.175781 C 74.984375 32.492188 74.515625 32.976562 74.214844 33.578125 L 71.636719 38.71875 C 71.550781 38.894531 71.535156 39.09375 71.597656 39.28125 C 71.664062 39.464844 71.792969 39.617188 71.972656 39.707031 C 72.183594 39.808594 72.433594 39.804688 72.640625 39.695312 L 72.648438 39.691406 C 72.785156 39.621094 72.890625 39.507812 72.957031 39.375 L 72.972656 39.34375 C 72.984375 39.324219 72.992188 39.308594 73 39.292969 L 75.535156 34.234375 C 75.699219 33.910156 75.953125 33.644531 76.273438 33.472656 C 76.308594 33.453125 76.347656 33.433594 76.382812 33.417969 C 76.867188 33.199219 77.417969 33.210938 77.890625 33.445312 C 78.308594 33.652344 78.625 34.011719 78.773438 34.457031 C 78.925781 34.902344 78.894531 35.378906 78.691406 35.796875 L 72.40625 48.484375 C 72.335938 48.632812 72.242188 48.769531 72.125 48.898438 C 71.996094 49.039062 71.84375 49.15625 71.671875 49.25 C 71.617188 49.28125 71.566406 49.304688 71.519531 49.324219 L 71.511719 49.328125 C 71.179688 49.410156 59.890625 52.238281 59.777344 52.265625 C 59.738281 52.277344 59.714844 52.28125 59.6875 52.292969 C 59.535156 52.347656 59.382812 52.414062 59.234375 52.492188 C 58.648438 52.808594 58.179688 53.296875 57.878906 53.898438 L 57.46875 54.730469 L 50.089844 51.078125 L 52.390625 46.332031 C 52.730469 45.644531 53.261719 45.089844 53.933594 44.726562 C 54.183594 44.59375 54.445312 44.5 54.78125 44.425781 C 54.847656 44.410156 67.949219 41.589844 68.082031 41.5625 C 69.011719 41.359375 69.941406 41.9375 70.160156 42.851562 C 70.265625 43.300781 70.1875 43.761719 69.9375 44.15625 C 69.777344 44.414062 69.550781 44.628906 69.28125 44.769531 C 69.144531 44.84375 68.996094 44.902344 68.84375 44.9375 L 68.816406 44.945312 L 61.945312 46.746094 C 61.894531 46.761719 61.839844 46.78125 61.792969 46.808594 C 61.492188 46.96875 61.34375 47.316406 61.433594 47.648438 C 61.488281 47.855469 61.628906 48.023438 61.816406 48.117188 C 61.980469 48.199219 62.164062 48.21875 62.332031 48.171875 L 69.207031 46.371094 C 69.480469 46.300781 69.742188 46.203125 69.984375 46.070312 C 70.472656 45.804688 70.890625 45.414062 71.1875 44.941406 C 71.648438 44.210938 71.792969 43.347656 71.59375 42.511719 C 71.195312 40.820312 69.476562 39.746094 67.765625 40.117188 C 67.214844 40.234375 54.320312 42.984375 54.007812 43.089844 C 53.71875 43.191406 53.472656 43.296875 53.230469 43.425781 C 52.292969 43.933594 51.542969 44.710938 51.066406 45.679688 L 48.769531 50.421875 L 47.921875 50.003906 C 47.722656 49.90625 47.492188 49.902344 47.292969 49.992188 C 47.277344 50 47.261719 50.007812 47.246094 50.015625 C 47.113281 50.089844 47.003906 50.199219 46.9375 50.335938 L 38.234375 68.097656 C 38.136719 68.304688 38.144531 68.554688 38.253906 68.761719 C 38.4375 69.101562 38.859375 69.246094 39.210938 69.085938 C 39.226562 69.078125 39.246094 69.070312 39.257812 69.0625 C 39.40625 68.984375 39.519531 68.859375 39.585938 68.707031 L 47.929688 51.65625 L 58.339844 56.808594 L 52.773438 68.019531 L 52.769531 68.027344 C 52.742188 68.066406 52.722656 68.113281 52.703125 68.160156 C 52.632812 68.355469 52.652344 68.578125 52.75 68.761719 C 52.933594 69.101562 53.355469 69.246094 53.707031 69.085938 C 53.722656 69.078125 53.738281 69.070312 53.753906 69.0625 C 53.769531 69.054688 53.789062 69.042969 53.804688 69.03125 C 53.917969 68.960938 54.011719 68.859375 54.066406 68.738281 L 59.992188 56.796875 C 60.167969 56.433594 60.019531 55.992188 59.65625 55.8125 L 58.792969 55.382812 L 59.199219 54.554688 C 59.363281 54.230469 59.617188 53.964844 59.9375 53.792969 C 60.003906 53.757812 60.074219 53.726562 60.144531 53.699219 L 60.175781 53.691406 L 71.914062 50.75 L 71.933594 50.742188 C 71.9375 50.742188 71.941406 50.742188 71.949219 50.738281 L 71.984375 50.726562 C 71.984375 50.726562 71.984375 50.726562 71.988281 50.726562 L 72.015625 50.71875 C 72.132812 50.667969 72.253906 50.613281 72.363281 50.554688 C 72.683594 50.382812 72.96875 50.160156 73.210938 49.894531 C 73.417969 49.671875 73.59375 49.417969 73.730469 49.140625 L 80.015625 36.445312 C 80.390625 35.675781 80.449219 34.800781 80.171875 33.984375 " fill-opacity="1" fill-rule="nonzero"/></g></svg>