<svg xmlns="http://www.w3.org/2000/svg" xmlns:xlink="http://www.w3.org/1999/xlink" width="116" zoomAndPan="magnify" viewBox="0 0 87 68.999997" height="92" preserveAspectRatio="xMidYMid meet" version="1.0"><defs><clipPath id="id1"><path d="M 29 18 L 71 18 L 71 59.8125 L 29 59.8125 Z M 29 18 " clip-rule="nonzero"/></clipPath><clipPath id="id2"><path d="M 10.03125 18 L 52 18 L 52 59.8125 L 10.03125 59.8125 Z M 10.03125 18 " clip-rule="nonzero"/></clipPath><clipPath id="id3"><path d="M 21 5.0625 L 41 5.0625 L 41 22 L 21 22 Z M 21 5.0625 " clip-rule="nonzero"/></clipPath><clipPath id="id4"><path d="M 20 5.0625 L 42 5.0625 L 42 23 L 20 23 Z M 20 5.0625 " clip-rule="nonzero"/></clipPath><clipPath id="id5"><path d="M 67 20 L 76.78125 20 L 76.78125 23 L 67 23 Z M 67 20 " clip-rule="nonzero"/></clipPath></defs><path fill="#ffffff" d="M 49.410156 19.378906 C 46.230469 19.46875 43.25 20.308594 40.625 21.710938 C 39.011719 22.574219 37.53125 23.648438 36.226562 24.902344 C 32.347656 28.632812 29.996094 33.917969 30.160156 39.714844 C 30.3125 45.066406 32.585938 49.855469 36.144531 53.316406 C 37.753906 52.757812 39.234375 51.9375 40.539062 50.90625 C 37.203125 48.234375 35.015625 44.179688 34.886719 39.578125 C 34.746094 34.640625 37.003906 30.191406 40.605469 27.34375 L 45 24.929688 C 46.425781 24.433594 47.953125 24.140625 49.542969 24.097656 C 57.875 23.859375 64.820312 30.410156 65.058594 38.722656 C 65.292969 47.039062 58.730469 53.96875 50.402344 54.207031 C 48.476562 54.261719 46.628906 53.949219 44.921875 53.34375 C 43.613281 54.597656 42.136719 55.671875 40.523438 56.535156 C 43.492188 58.144531 46.910156 59.023438 50.535156 58.921875 C 61.476562 58.613281 70.09375 49.507812 69.785156 38.589844 C 69.472656 27.671875 60.351562 19.070312 49.410156 19.378906 Z M 49.410156 19.378906 " fill-opacity="1" fill-rule="nonzero"/><g clip-path="url(#id1)"><path fill="#faefe7" d="M 49.964844 59.8125 C 46.527344 59.8125 43.117188 58.945312 40.097656 57.308594 C 39.8125 57.152344 39.636719 56.855469 39.636719 56.53125 C 39.640625 56.207031 39.816406 55.910156 40.105469 55.757812 C 41.644531 54.933594 43.058594 53.90625 44.308594 52.707031 C 44.550781 52.476562 44.902344 52.402344 45.214844 52.511719 C 46.875 53.101562 48.609375 53.375 50.375 53.324219 C 58.207031 53.101562 64.398438 46.5625 64.175781 38.75 C 63.953125 31.023438 57.71875 24.972656 49.980469 24.972656 C 49.84375 24.972656 49.707031 24.976562 49.570312 24.980469 C 48.128906 25.019531 46.714844 25.273438 45.359375 25.738281 L 41.097656 28.078125 C 37.582031 30.886719 35.640625 35.066406 35.769531 39.554688 C 35.886719 43.71875 37.828125 47.605469 41.09375 50.21875 C 41.304688 50.382812 41.425781 50.640625 41.425781 50.90625 C 41.421875 51.175781 41.300781 51.429688 41.089844 51.59375 C 39.6875 52.703125 38.125 53.5625 36.4375 54.148438 C 36.121094 54.257812 35.769531 54.179688 35.53125 53.949219 C 31.652344 50.179688 29.433594 45.132812 29.277344 39.738281 C 29.113281 33.9375 31.421875 28.296875 35.613281 24.269531 C 36.976562 22.957031 38.523438 21.835938 40.207031 20.933594 C 43.058594 19.410156 46.144531 18.589844 49.382812 18.5 C 49.585938 18.492188 49.785156 18.492188 49.984375 18.492188 C 55.386719 18.492188 60.503906 20.5625 64.390625 24.324219 C 68.285156 28.09375 70.511719 33.152344 70.667969 38.566406 C 70.992188 49.953125 61.972656 59.480469 50.5625 59.804688 C 50.359375 59.808594 50.164062 59.8125 49.964844 59.8125 Z M 42.382812 56.460938 C 44.765625 57.503906 47.355469 58.046875 49.964844 58.046875 C 50.144531 58.046875 50.328125 58.046875 50.511719 58.039062 C 60.949219 57.746094 69.199219 49.03125 68.902344 38.613281 C 68.601562 28.136719 60 19.957031 49.433594 20.261719 C 46.46875 20.347656 43.648438 21.09375 41.042969 22.488281 C 39.5 23.3125 38.085938 24.339844 36.839844 25.539062 C 33.003906 29.222656 30.894531 34.382812 31.042969 39.6875 C 31.179688 44.4375 33.066406 48.890625 36.371094 52.292969 C 37.339844 51.914062 38.261719 51.429688 39.125 50.847656 C 35.976562 47.945312 34.125 43.90625 34.003906 39.605469 C 33.859375 34.53125 36.066406 29.808594 40.058594 26.652344 C 40.09375 26.621094 40.136719 26.59375 40.179688 26.570312 L 44.574219 24.15625 C 44.617188 24.132812 44.664062 24.113281 44.707031 24.097656 C 46.253906 23.558594 47.871094 23.261719 49.519531 23.214844 C 53.863281 23.101562 57.988281 24.703125 61.097656 27.710938 C 64.101562 30.621094 65.820312 34.523438 65.941406 38.699219 C 66.191406 47.484375 59.230469 54.835938 50.425781 55.085938 C 48.621094 55.136719 46.847656 54.886719 45.140625 54.347656 C 44.285156 55.125 43.363281 55.835938 42.382812 56.460938 Z M 42.382812 56.460938 " fill-opacity="1" fill-rule="nonzero"/></g><path fill="#ffffff" d="M 45 24.929688 C 43.390625 25.488281 41.910156 26.308594 40.605469 27.339844 C 43.941406 30.011719 46.128906 34.066406 46.257812 38.667969 C 46.398438 43.605469 44.140625 48.054688 40.539062 50.902344 C 39.234375 51.9375 37.753906 52.757812 36.144531 53.316406 C 34.71875 53.8125 33.195312 54.101562 31.601562 54.148438 C 23.273438 54.386719 16.324219 47.835938 16.089844 39.523438 C 15.851562 31.207031 22.414062 24.277344 30.746094 24.039062 C 32.667969 23.984375 34.515625 24.296875 36.226562 24.902344 C 37.53125 23.648438 39.011719 22.574219 40.625 21.710938 C 37.652344 20.101562 34.234375 19.21875 30.609375 19.324219 C 19.667969 19.632812 11.050781 28.738281 11.363281 39.65625 C 11.671875 50.574219 20.796875 59.175781 31.738281 58.863281 C 34.917969 58.773438 37.894531 57.9375 40.519531 56.535156 C 42.132812 55.671875 43.613281 54.597656 44.917969 53.34375 C 48.800781 49.613281 51.152344 44.328125 50.984375 38.53125 C 50.832031 33.179688 48.5625 28.390625 45 24.929688 Z M 45 24.929688 " fill-opacity="1" fill-rule="nonzero"/><g clip-path="url(#id2)"><path fill="#faefe7" d="M 31.164062 59.753906 C 25.757812 59.753906 20.640625 57.683594 16.757812 53.921875 C 12.863281 50.152344 10.632812 45.09375 10.480469 39.679688 C 10.15625 28.292969 19.175781 18.765625 30.585938 18.441406 C 30.785156 18.4375 30.984375 18.433594 31.183594 18.433594 C 34.617188 18.433594 38.027344 19.300781 41.046875 20.9375 C 41.332031 21.089844 41.507812 21.390625 41.507812 21.714844 C 41.507812 22.039062 41.328125 22.335938 41.042969 22.488281 C 39.5 23.3125 38.085938 24.339844 36.839844 25.539062 C 36.597656 25.769531 36.246094 25.84375 35.929688 25.734375 C 34.269531 25.144531 32.539062 24.871094 30.769531 24.921875 C 22.9375 25.144531 16.75 31.683594 16.972656 39.496094 C 17.191406 47.222656 23.425781 53.273438 31.164062 53.273438 C 31.300781 53.273438 31.441406 53.269531 31.578125 53.265625 C 33.042969 53.226562 34.480469 52.960938 35.855469 52.484375 C 37.355469 51.960938 38.746094 51.199219 39.992188 50.214844 C 43.542969 47.40625 45.503906 43.203125 45.375 38.691406 C 45.257812 34.527344 43.316406 30.640625 40.054688 28.027344 C 39.84375 27.859375 39.722656 27.605469 39.722656 27.339844 C 39.722656 27.070312 39.847656 26.816406 40.058594 26.652344 C 41.457031 25.542969 43.023438 24.683594 44.710938 24.097656 C 45.023438 23.988281 45.375 24.066406 45.617188 24.296875 C 49.496094 28.066406 51.714844 33.113281 51.867188 38.507812 C 52.035156 44.308594 49.722656 49.949219 45.53125 53.976562 C 44.167969 55.289062 42.621094 56.410156 40.9375 57.3125 C 38.089844 58.835938 35.003906 59.652344 31.761719 59.746094 C 31.5625 59.753906 31.363281 59.753906 31.164062 59.753906 Z M 31.183594 20.195312 C 31 20.195312 30.820312 20.199219 30.636719 20.203125 C 20.199219 20.5 11.949219 29.214844 12.246094 39.632812 C 12.539062 49.925781 20.847656 57.992188 31.164062 57.992188 C 31.347656 57.992188 31.527344 57.988281 31.710938 57.984375 C 34.675781 57.898438 37.5 57.148438 40.105469 55.757812 C 41.644531 54.933594 43.058594 53.90625 44.308594 52.707031 C 48.140625 49.023438 50.253906 43.863281 50.101562 38.558594 C 49.96875 33.808594 48.082031 29.355469 44.773438 25.953125 C 43.804688 26.332031 42.882812 26.816406 42.023438 27.398438 C 45.167969 30.300781 47.019531 34.339844 47.140625 38.640625 C 47.285156 43.714844 45.082031 48.4375 41.089844 51.59375 C 39.6875 52.703125 38.125 53.5625 36.4375 54.148438 C 34.890625 54.6875 33.273438 54.984375 31.628906 55.03125 C 27.28125 55.144531 23.15625 53.542969 20.046875 50.535156 C 17.042969 47.625 15.324219 43.722656 15.207031 39.546875 C 14.957031 30.761719 21.914062 23.410156 30.71875 23.160156 C 32.527344 23.109375 34.296875 23.359375 36.007812 23.898438 C 36.863281 23.121094 37.785156 22.410156 38.761719 21.78125 C 36.378906 20.742188 33.789062 20.195312 31.183594 20.195312 Z M 31.183594 20.195312 " fill-opacity="1" fill-rule="nonzero"/></g><g clip-path="url(#id3)"><path fill="#ffffff" d="M 35.953125 5.945312 C 33.289062 5.945312 31.125 7.835938 31.125 10.167969 C 31.125 7.835938 28.964844 5.945312 26.300781 5.945312 C 24.066406 5.945312 21.714844 7.8125 21.582031 10.035156 C 21.398438 13.003906 23.574219 15.78125 25.589844 17.710938 C 27.035156 19.097656 28.664062 20.386719 30.324219 21.503906 C 30.390625 21.546875 31.027344 22.035156 31.125 21.980469 C 35.082031 19.765625 40.78125 15.21875 40.78125 10.167969 C 40.777344 7.835938 38.617188 5.945312 35.953125 5.945312 Z M 35.953125 5.945312 " fill-opacity="1" fill-rule="nonzero"/></g><g clip-path="url(#id4)"><path fill="#faefe7" d="M 31.105469 22.863281 C 30.75 22.863281 30.445312 22.683594 29.859375 22.253906 L 29.820312 22.226562 C 28.046875 21.03125 26.414062 19.726562 24.976562 18.347656 C 21.976562 15.46875 20.535156 12.65625 20.699219 9.980469 C 20.859375 7.363281 23.476562 5.066406 26.300781 5.066406 C 28.328125 5.066406 30.113281 6.015625 31.125 7.445312 C 32.140625 6.015625 33.925781 5.066406 35.953125 5.066406 C 39.101562 5.066406 41.664062 7.355469 41.664062 10.167969 C 41.664062 15.277344 36.441406 20.015625 31.558594 22.746094 C 31.425781 22.820312 31.257812 22.863281 31.105469 22.863281 Z M 26.300781 6.828125 C 24.429688 6.828125 22.566406 8.410156 22.460938 10.085938 C 22.300781 12.746094 24.40625 15.355469 26.199219 17.078125 C 27.542969 18.367188 29.140625 19.644531 30.820312 20.773438 C 30.835938 20.785156 30.863281 20.804688 30.902344 20.832031 C 30.980469 20.890625 31.046875 20.9375 31.101562 20.976562 C 35.25 18.5625 39.894531 14.382812 39.894531 10.167969 C 39.894531 8.324219 38.125 6.828125 35.953125 6.828125 C 33.777344 6.828125 32.007812 8.324219 32.007812 10.167969 C 32.007812 10.652344 31.613281 11.046875 31.125 11.046875 C 30.636719 11.046875 30.242188 10.652344 30.242188 10.167969 C 30.242188 8.324219 28.472656 6.828125 26.300781 6.828125 Z M 26.300781 6.828125 " fill-opacity="1" fill-rule="nonzero"/></g><path fill="#ffffff" d="M 33.769531 17.589844 C 33.148438 18.160156 33.1875 18.113281 32.359375 18.640625 " fill-opacity="1" fill-rule="nonzero"/><path fill="#faefe7" d="M 32.359375 19.269531 C 32.152344 19.269531 31.949219 19.167969 31.828125 18.976562 C 31.640625 18.683594 31.726562 18.296875 32.023438 18.109375 L 32.257812 17.957031 C 32.828125 17.597656 32.828125 17.597656 33.34375 17.125 C 33.601562 16.890625 34 16.90625 34.234375 17.160156 C 34.472656 17.417969 34.457031 17.816406 34.199219 18.050781 C 33.613281 18.585938 33.554688 18.628906 32.933594 19.023438 L 32.699219 19.171875 C 32.59375 19.238281 32.476562 19.269531 32.359375 19.269531 Z M 32.359375 19.269531 " fill-opacity="1" fill-rule="nonzero"/><path fill="#ffffff" d="M 37.144531 13.382812 C 37.144531 13.382812 37.175781 14.550781 35.308594 16.265625 " fill-opacity="1" fill-rule="nonzero"/><path fill="#faefe7" d="M 35.308594 16.898438 C 35.140625 16.898438 34.96875 16.828125 34.84375 16.695312 C 34.609375 16.4375 34.625 16.039062 34.882812 15.804688 C 36.460938 14.355469 36.511719 13.390625 36.511719 13.378906 C 36.503906 13.03125 36.777344 12.753906 37.125 12.742188 C 37.476562 12.738281 37.765625 13.019531 37.773438 13.367188 C 37.777344 13.515625 37.757812 14.875 35.738281 16.730469 C 35.617188 16.84375 35.460938 16.898438 35.308594 16.898438 Z M 35.308594 16.898438 " fill-opacity="1" fill-rule="nonzero"/><path fill="#ffffff" d="M 69.683594 14.503906 L 65.242188 19.644531 " fill-opacity="1" fill-rule="nonzero"/><path fill="#faefe7" d="M 65.242188 20.527344 C 65.035156 20.527344 64.832031 20.457031 64.664062 20.3125 C 64.292969 19.996094 64.253906 19.4375 64.570312 19.070312 L 69.015625 13.925781 C 69.335938 13.558594 69.890625 13.515625 70.261719 13.835938 C 70.632812 14.152344 70.671875 14.710938 70.355469 15.078125 L 65.910156 20.222656 C 65.734375 20.425781 65.488281 20.527344 65.242188 20.527344 Z M 65.242188 20.527344 " fill-opacity="1" fill-rule="nonzero"/><path fill="#ffffff" d="M 61.984375 9.519531 L 62.554688 17.328125 " fill-opacity="1" fill-rule="nonzero"/><path fill="#faefe7" d="M 62.550781 18.210938 C 62.09375 18.210938 61.707031 17.855469 61.671875 17.390625 L 61.105469 9.585938 C 61.070312 9.097656 61.433594 8.675781 61.921875 8.640625 C 62.40625 8.609375 62.832031 8.972656 62.867188 9.457031 L 63.433594 17.265625 C 63.46875 17.75 63.105469 18.171875 62.617188 18.207031 C 62.59375 18.207031 62.574219 18.210938 62.550781 18.210938 Z M 62.550781 18.210938 " fill-opacity="1" fill-rule="nonzero"/><path fill="#ffffff" d="M 75.738281 21.386719 L 67.914062 21.953125 " fill-opacity="1" fill-rule="nonzero"/><g clip-path="url(#id5)"><path fill="#faefe7" d="M 67.914062 22.835938 C 67.457031 22.835938 67.066406 22.480469 67.035156 22.015625 C 67 21.53125 67.363281 21.109375 67.851562 21.074219 L 75.671875 20.507812 C 76.15625 20.472656 76.582031 20.835938 76.617188 21.324219 C 76.652344 21.808594 76.285156 22.230469 75.800781 22.265625 L 67.980469 22.832031 C 67.957031 22.835938 67.9375 22.835938 67.914062 22.835938 Z M 67.914062 22.835938 " fill-opacity="1" fill-rule="nonzero"/></g><path fill="#faefe7" d="M 30.777344 57.171875 C 27.957031 57.171875 25.546875 56.417969 23.773438 55.605469 C 23.457031 55.460938 23.316406 55.085938 23.460938 54.773438 C 23.605469 54.457031 23.980469 54.316406 24.296875 54.460938 C 26.914062 55.65625 31.027344 56.726562 35.761719 55.039062 C 36.089844 54.921875 36.449219 55.09375 36.566406 55.417969 C 36.683594 55.746094 36.515625 56.105469 36.1875 56.222656 C 34.273438 56.90625 32.453125 57.171875 30.777344 57.171875 Z M 30.777344 57.171875 " fill-opacity="1" fill-rule="nonzero"/><path fill="#faefe7" d="M 22.445312 54.839844 C 22.335938 54.839844 22.226562 54.8125 22.128906 54.753906 C 20.429688 53.769531 19.449219 52.851562 19.410156 52.816406 C 19.15625 52.578125 19.144531 52.175781 19.382812 51.925781 C 19.621094 51.671875 20.023438 51.660156 20.273438 51.898438 C 20.285156 51.90625 21.199219 52.757812 22.761719 53.667969 C 23.0625 53.84375 23.167969 54.226562 22.992188 54.527344 C 22.875 54.730469 22.664062 54.839844 22.445312 54.839844 Z M 22.445312 54.839844 " fill-opacity="1" fill-rule="nonzero"/></svg>