<svg xmlns="http://www.w3.org/2000/svg" xmlns:xlink="http://www.w3.org/1999/xlink" width="116" zoomAndPan="magnify" viewBox="0 0 87 68.999997" height="92" preserveAspectRatio="xMidYMid meet" version="1.0"><defs><clipPath id="id1"><path d="M 3 17 L 46 17 L 46 64.398438 L 3 64.398438 Z M 3 17 " clip-rule="nonzero"/></clipPath><clipPath id="id2"><path d="M 65 4.398438 L 84.367188 4.398438 L 84.367188 21 L 65 21 Z M 65 4.398438 " clip-rule="nonzero"/></clipPath></defs><path fill="#000000" d="M 20.222656 58.484375 C 20.222656 58.652344 20.164062 58.800781 20.042969 58.921875 C 19.921875 59.046875 19.773438 59.109375 19.597656 59.109375 C 19.425781 59.113281 19.277344 59.054688 19.152344 58.933594 C 19.027344 58.8125 18.964844 58.667969 18.960938 58.496094 C 18.960938 58.324219 19.019531 58.179688 19.140625 58.054688 C 19.261719 57.933594 19.410156 57.871094 19.585938 57.871094 C 19.757812 57.867188 19.90625 57.925781 20.03125 58.046875 C 20.15625 58.164062 20.21875 58.3125 20.222656 58.484375 Z M 20.222656 58.484375 " fill-opacity="1" fill-rule="nonzero"/><path fill="#000000" d="M 20.8125 60.695312 C 20.816406 60.867188 20.753906 61.015625 20.632812 61.136719 C 20.511719 61.257812 20.363281 61.320312 20.191406 61.324219 C 20.015625 61.324219 19.867188 61.265625 19.742188 61.148438 C 19.617188 61.027344 19.554688 60.882812 19.550781 60.710938 C 19.550781 60.539062 19.609375 60.394531 19.730469 60.269531 C 19.851562 60.148438 20 60.085938 20.175781 60.082031 C 20.347656 60.082031 20.5 60.140625 20.625 60.257812 C 20.746094 60.378906 20.8125 60.523438 20.8125 60.695312 Z M 20.8125 60.695312 " fill-opacity="1" fill-rule="nonzero"/><g clip-path="url(#id1)"><path fill="#000000" d="M 40.617188 46.253906 C 41.375 46.949219 42.128906 47.339844 42.851562 47.339844 C 43.023438 47.339844 43.199219 47.3125 43.371094 47.269531 C 43.914062 47.117188 44.359375 46.726562 44.6875 46.121094 C 45.183594 45.226562 45.417969 43.804688 45.417969 42.03125 C 45.417969 39.058594 44.746094 35.070312 43.453125 30.851562 C 41.167969 23.371094 37.242188 16.246094 34.175781 17.109375 C 33.632812 17.261719 33.1875 17.652344 32.859375 18.257812 C 32.648438 18.632812 32.492188 19.097656 32.371094 19.648438 C 23.621094 27.34375 17.351562 29.367188 11.761719 31.167969 C 11.59375 31.21875 11.4375 31.273438 11.273438 31.324219 C 11.210938 31.324219 11.144531 31.320312 11.082031 31.335938 C 10.988281 31.359375 10.910156 31.40625 10.839844 31.464844 C 9.851562 31.785156 8.882812 32.105469 7.917969 32.460938 C 3.921875 33.9375 2.617188 38.667969 3.65625 42.382812 C 4.503906 45.40625 8.296875 48.285156 11.285156 48.285156 C 11.441406 48.285156 11.601562 48.28125 11.753906 48.261719 C 12.140625 48.214844 12.511719 48.167969 12.886719 48.097656 C 12.886719 48.097656 12.890625 48.097656 12.890625 48.097656 L 16.558594 61.589844 C 17 63.261719 18.539062 64.382812 20.210938 64.382812 C 20.503906 64.382812 20.804688 64.347656 21.101562 64.273438 C 22.066406 64.035156 22.878906 63.441406 23.382812 62.59375 C 23.886719 61.746094 24.023438 60.753906 23.769531 59.796875 L 20.105469 45.96875 C 24.652344 44.574219 30.269531 43.570312 40.617188 46.253906 Z M 33.53125 20.316406 C 33.632812 19.699219 33.777344 19.210938 33.96875 18.863281 C 34.132812 18.5625 34.320312 18.386719 34.523438 18.328125 C 34.582031 18.308594 34.644531 18.304688 34.707031 18.304688 C 34.917969 18.304688 35.171875 18.390625 35.441406 18.5625 C 36.175781 19.015625 37.113281 20.070312 38.113281 21.667969 C 39.488281 23.863281 40.984375 27.097656 42.242188 31.222656 C 44.398438 38.269531 44.546875 43.746094 43.578125 45.515625 C 43.414062 45.816406 43.226562 45.996094 43.023438 46.050781 C 42.890625 46.089844 42.738281 46.082031 42.566406 46.03125 C 42.199219 45.925781 41.757812 45.617188 41.261719 45.117188 C 40.261719 44.109375 39.058594 42.316406 37.863281 39.820312 C 37.859375 39.820312 37.859375 39.816406 37.859375 39.816406 C 40.3125 36.882812 40.539062 32.679688 38.375 29.503906 C 37.261719 27.863281 35.605469 26.667969 33.695312 26.097656 C 33.695312 26.097656 33.695312 26.09375 33.695312 26.09375 C 33.347656 23.664062 33.316406 21.679688 33.53125 20.316406 Z M 37.265625 38.515625 C 36.582031 36.953125 35.917969 35.160156 35.304688 33.15625 C 34.683594 31.128906 34.230469 29.226562 33.925781 27.511719 C 35.304688 28.050781 36.492188 28.988281 37.328125 30.210938 C 39.054688 32.75 38.996094 36.050781 37.265625 38.515625 Z M 30.226562 23.09375 C 30.851562 22.59375 31.496094 22.070312 32.15625 21.507812 C 32.003906 24.550781 32.675781 28.902344 34.09375 33.527344 C 35.40625 37.808594 37.246094 41.972656 39.167969 44.59375 C 38.191406 44.371094 37.253906 44.175781 36.359375 44.011719 C 36.359375 44.011719 36.355469 44.011719 36.351562 44.011719 C 36.339844 43.984375 36.335938 43.953125 36.320312 43.925781 C 34.75 41.476562 33.25 38.027344 32.101562 34.214844 C 30.863281 30.132812 30.183594 26.128906 30.238281 23.238281 C 30.238281 23.1875 30.222656 23.148438 30.214844 23.101562 C 30.21875 23.097656 30.222656 23.097656 30.226562 23.09375 Z M 11.621094 47.003906 C 9.1875 47.269531 5.597656 44.625 4.875 42.042969 C 4.007812 38.945312 5.09375 34.855469 8.359375 33.648438 C 9.167969 33.347656 9.984375 33.074219 10.8125 32.800781 L 14.390625 46.46875 C 13.488281 46.710938 12.574219 46.902344 11.621094 47.003906 Z M 22.542969 60.117188 C 22.710938 60.746094 22.621094 61.394531 22.292969 61.949219 C 21.964844 62.503906 21.433594 62.890625 20.796875 63.046875 C 19.480469 63.371094 18.128906 62.570312 17.78125 61.261719 L 14.132812 47.839844 C 14.722656 47.695312 15.300781 47.527344 15.878906 47.351562 L 18.292969 56.074219 C 18.371094 56.355469 18.625 56.539062 18.902344 56.539062 C 18.957031 56.539062 19.015625 56.53125 19.070312 56.515625 C 19.40625 56.421875 19.605469 56.074219 19.511719 55.738281 L 17.085938 46.964844 C 17.359375 46.875 17.632812 46.78125 17.910156 46.6875 C 18.238281 46.582031 18.566406 46.46875 18.898438 46.363281 Z M 22.542969 60.117188 " fill-opacity="1" fill-rule="nonzero"/></g><path fill="#000000" d="M 46.847656 30.925781 L 53.496094 30.925781 C 53.722656 30.925781 53.925781 30.808594 54.039062 30.613281 L 57.367188 24.929688 C 57.480469 24.734375 57.480469 24.496094 57.367188 24.300781 L 54.039062 18.617188 C 53.925781 18.421875 53.722656 18.304688 53.496094 18.304688 L 46.847656 18.304688 C 46.621094 18.304688 46.417969 18.421875 46.300781 18.617188 L 42.976562 24.300781 C 42.859375 24.496094 42.859375 24.734375 42.976562 24.929688 L 46.300781 30.613281 C 46.417969 30.808594 46.621094 30.925781 46.847656 30.925781 Z M 46.675781 22.425781 C 47.523438 21.597656 48.867188 21.605469 49.695312 22.417969 L 50.191406 22.917969 L 50.699219 22.40625 C 51.496094 21.589844 52.886719 21.589844 53.6875 22.40625 C 54.078125 22.816406 54.289062 23.347656 54.289062 23.902344 C 54.289062 24.457031 54.078125 24.988281 53.691406 25.390625 L 50.601562 28.527344 C 50.480469 28.648438 50.316406 28.71875 50.152344 28.71875 C 49.980469 28.71875 49.816406 28.648438 49.695312 28.527344 L 46.675781 25.460938 C 45.851562 24.628906 45.851562 23.265625 46.675781 22.425781 Z M 46.675781 22.425781 " fill-opacity="1" fill-rule="nonzero"/><path fill="#000000" d="M 50.152344 27.183594 L 52.78125 24.515625 C 52.933594 24.355469 53.019531 24.136719 53.019531 23.902344 C 53.019531 23.667969 52.933594 23.449219 52.773438 23.277344 C 52.46875 22.972656 51.917969 22.96875 51.601562 23.289062 L 50.640625 24.261719 C 50.40625 24.5 49.976562 24.5 49.742188 24.261719 L 48.796875 23.308594 C 48.632812 23.144531 48.410156 23.050781 48.191406 23.050781 C 47.96875 23.050781 47.753906 23.144531 47.574219 23.316406 C 47.234375 23.664062 47.234375 24.230469 47.582031 24.578125 Z M 50.152344 27.183594 " fill-opacity="1" fill-rule="nonzero"/><path fill="#000000" d="M 78.035156 10.726562 L 71.703125 10.726562 C 71.351562 10.726562 71.070312 11.011719 71.070312 11.359375 L 71.070312 13.882812 C 71.070312 14.234375 71.351562 14.515625 71.703125 14.515625 L 78.035156 14.515625 C 78.382812 14.515625 78.667969 14.234375 78.667969 13.882812 L 78.667969 11.359375 C 78.667969 11.011719 78.382812 10.726562 78.035156 10.726562 Z M 74.867188 13.21875 L 73.832031 13.8125 L 73.832031 11.429688 L 74.867188 12.027344 L 75.902344 12.621094 Z M 74.867188 13.21875 " fill-opacity="1" fill-rule="nonzero"/><g clip-path="url(#id2)"><path fill="#000000" d="M 79.847656 4.730469 C 79.734375 4.535156 79.527344 4.417969 79.300781 4.417969 L 70.433594 4.417969 C 70.210938 4.417969 70 4.535156 69.886719 4.730469 L 65.457031 12.304688 C 65.339844 12.5 65.339844 12.742188 65.457031 12.941406 L 69.886719 20.515625 C 70 20.707031 70.210938 20.828125 70.433594 20.828125 L 79.300781 20.828125 C 79.527344 20.828125 79.734375 20.707031 79.847656 20.515625 L 84.28125 12.941406 C 84.394531 12.742188 84.394531 12.5 84.28125 12.304688 Z M 79.933594 13.882812 C 79.933594 14.929688 79.082031 15.777344 78.035156 15.777344 L 71.703125 15.777344 C 70.652344 15.777344 69.800781 14.929688 69.800781 13.882812 L 69.800781 11.359375 C 69.800781 10.316406 70.652344 9.464844 71.703125 9.464844 L 78.035156 9.464844 C 79.082031 9.464844 79.933594 10.316406 79.933594 11.359375 Z M 79.933594 13.882812 " fill-opacity="1" fill-rule="nonzero"/></g><path fill="#000000" d="M 68.523438 35.347656 C 68.742188 35.367188 68.9375 35.496094 69.035156 35.691406 L 70.1875 37.929688 L 71.078125 36.839844 C 71.210938 36.679688 71.417969 36.59375 71.625 36.609375 C 71.835938 36.628906 72.023438 36.75 72.125 36.933594 L 72.96875 38.464844 L 72.96875 32.820312 L 65.371094 32.820312 L 65.371094 39.085938 L 67.964844 35.601562 C 68.09375 35.425781 68.308594 35.328125 68.523438 35.347656 Z M 70.363281 33.769531 C 70.886719 33.730469 71.34375 34.125 71.382812 34.644531 C 71.421875 35.167969 71.027344 35.621094 70.503906 35.660156 C 69.980469 35.699219 69.527344 35.304688 69.488281 34.785156 C 69.449219 34.261719 69.84375 33.808594 70.363281 33.769531 Z M 70.363281 33.769531 " fill-opacity="1" fill-rule="nonzero"/><path fill="#000000" d="M 65.992188 40.371094 L 70.03125 40.390625 L 68.375 37.167969 Z M 65.992188 40.371094 " fill-opacity="1" fill-rule="nonzero"/><path fill="#000000" d="M 70.816406 39.15625 L 71.4375 40.363281 L 72.550781 40.324219 L 71.464844 38.363281 Z M 70.816406 39.15625 " fill-opacity="1" fill-rule="nonzero"/><path fill="#000000" d="M 64.261719 46.078125 L 74.078125 46.078125 C 74.304688 46.078125 74.519531 45.953125 74.628906 45.75 L 79.539062 36.914062 C 79.644531 36.722656 79.644531 36.492188 79.539062 36.304688 L 74.628906 27.464844 C 74.519531 27.265625 74.304688 27.140625 74.078125 27.140625 L 64.261719 27.140625 C 64.03125 27.140625 63.820312 27.265625 63.707031 27.464844 L 58.800781 36.304688 C 58.695312 36.492188 58.695312 36.722656 58.800781 36.914062 L 63.707031 45.75 C 63.820312 45.953125 64.03125 46.078125 64.261719 46.078125 Z M 64.101562 32.191406 C 64.101562 31.839844 64.386719 31.558594 64.734375 31.558594 L 73.601562 31.558594 C 73.953125 31.558594 74.234375 31.839844 74.234375 32.191406 L 74.234375 41.027344 C 74.234375 41.375 73.953125 41.660156 73.601562 41.660156 L 64.734375 41.660156 C 64.433594 41.660156 64.191406 41.441406 64.128906 41.15625 C 64.121094 41.128906 64.117188 41.101562 64.113281 41.070312 C 64.109375 41.054688 64.101562 41.042969 64.101562 41.027344 Z M 64.101562 32.191406 " fill-opacity="1" fill-rule="nonzero"/></svg>